<svg xmlns="http://www.w3.org/2000/svg" viewBox="0 0 900 740.1"><defs><style>.cls-1{fill:#eff1f1;}.cls-2{fill:#d9a87f;}</style></defs><g id="Layer_2" data-name="Layer 2"><g id="Layer_1-2" data-name="Layer 1"><circle id="Ellipse_1062" data-name="Ellipse 1062" class="cls-1" cx="386.33" cy="374.72" r="365.38"/><path class="cls-2" d="M499.45,348.07c-5.12-11.46-7.06-23.92-7.36-36.22-6.09,13.36-3.28,31.93,3.6,44.84,3.6,6.76,9.89,14.06,17.39,14.07,4.59,0,8.26-3.12,10-7.69C513.41,369.65,504,358.28,499.45,348.07Z"/><path class="cls-2" d="M617.59,104.51c-43.93-48.87-95-70.76-143.7-61.63-58.14,10.89-104,53.17-127.27,114.62a353.51,353.51,0,0,0-14.31,47.89A416.9,416.9,0,0,1,267,242.87a106.37,106.37,0,0,0-23.58,1.71c-2.48.47-5,1.06-8,1.86L96,276.77C31.28,288.89-10.71,355.68,2.39,425.65s76.42,117.05,140.84,105l14-2.06,68.35,154.28c5.67,15.69,23.64,25.41,41.07,22.14l.46-.1,36.07-9a22.33,22.33,0,0,0,10.24-5.76,21.6,21.6,0,0,0,2.5-2c18.32-16.89,19.72-19.2,20.46-20.44a22.23,22.23,0,0,0-1.42-25.18l-22-28.51a147.84,147.84,0,0,1-22.38-41.23L269.19,512l13.13-1.94a98,98,0,0,0,10.59-1.36,103.66,103.66,0,0,0,22.61-7c28.63,2.74,56.4,9.68,80.8,17.76A322.7,322.7,0,0,0,418.5,547c47.57,52.64,95.69,73.57,161.25,61.3,48.74-9.13,88.4-48,111.67-109.45,22.34-59,27-132.3,13.09-206.52S659.75,151.4,617.59,104.51ZM391.21,390l75.35-22.55L388,373.73l43-14.63-47.18.3c-.15-.74-.29-1.48-.44-2.22l30-10.27L381,344.23c-.15-.88-.3-1.76-.44-2.64l24-8.47-25.8-3.93c-.13-1-.25-1.94-.37-2.92l21.54-7.41-22.83-4.37c-.1-1.05-.19-2.09-.28-3.13l20.39-7L376,300.28c-.06-1-.12-2-.17-3l99.54-2.7c-7.59,12.36-10.49,30.63-6.8,50.33a85.88,85.88,0,0,0,10.3,28L391.79,392C391.6,391.34,391.4,390.69,391.21,390Zm124.17-8.88c-11.14,2.08-26.88-13.44-31.68-39s4.27-45.78,15.41-47.87,26.88,13.44,31.67,39S526.51,379.06,515.38,381.15ZM408.1,190.35c-7.67,5.66-15.4,11.25-23.42,16.44,14.2-15.33,29.85-29.38,45.49-43.27,20.55-18.25,42-35.7,64.16-52.06,7.67-5.65,15.41-11.25,23.43-16.43-14.19,15.34-29.84,29.38-45.48,43.27C451.74,156.56,430.26,174,408.1,190.35Zm-9-26.13c8.95-13.69,20.3-26,31.73-37.65s23.65-23.14,37.22-32.24c-8.94,13.7-20.29,26-31.73,37.65S412.7,155.1,399.14,164.22Zm37.32,326.71,44.31,18.71-55.72-42.27L530.29,503.1,417.18,443.76l97.43,18.78L430,428.29l91.73-32.76a7.3,7.3,0,0,0,1.38-.66c18.56-7.22,28.47-34.14,22.79-64.42a89.74,89.74,0,0,0-5.83-19.25L638,274.29l-110.5,17.2a46.94,46.94,0,0,0-9.53-7.89L637.49,235q-3.75-12.14-8.17-24l-117.8,52.46,111.11-69.28a354.56,354.56,0,0,0-32.21-59.66c-.22-.33-.46-.65-.68-1L475.47,199.18,583,124.37c-5.73-7.37-11.93-14.37-18.26-21.25,48.68,36,90.06,107.93,106.44,195.43,25.39,135.61-18.71,258.06-98.32,273C524.65,580.54,474.31,548.07,436.46,490.93ZM240,677.46c-.07-.2-.15-.39-.23-.58L173,526.24l3.91-.58,17.6,27.28-4.74-29.18,5.14-.76,17.19,26.64-4.63-28.49,5.44-.81,16.78,26-4.52-27.82,3.9-.57,28.19,80.15a148.76,148.76,0,0,0,22.55,41.52L303.18,670a6.92,6.92,0,0,1-3.79,10.94l-35.83,9C254.76,691.43,243.24,686.84,240,677.46ZM261.28,518c7.12,16.94,13.42,34.25,19.71,51.52,4.31,11.81,8.83,23.31,15.11,34.25,6,10.4,13.29,19.8,20.42,29.41,6.67,9,15.74,18.36,12.79,30.48-.19-10.87-7.48-17.88-13.95-25.82-7.52-9.23-15.14-18.5-21.35-28.67-12.54-20.55-19-44.52-25.93-67.4C265.71,533.88,263.38,526,261.28,518ZM108.1,365.18c3.18-24.41,11.47-47.2,27.19-66.44a100.31,100.31,0,0,0-10.09,8.79c-16.85,17-26.91,37.76-32.47,60.81,3.18-24.41,11.47-47.19,27.19-66.44a101.53,101.53,0,0,0-10.09,8.8c-16.85,17-26.91,37.76-32.47,60.81,3.18-24.41,11.47-47.2,27.2-66.44a101.53,101.53,0,0,0-10.1,8.79c-16.85,17-26.9,37.77-32.47,60.81,3.18-24.41,11.47-47.19,27.2-66.44a101.64,101.64,0,0,0-10.1,8.8c-16.85,17-26.9,37.76-32.47,60.81,3.18-24.41,11.47-47.2,27.2-66.44a100.36,100.36,0,0,0-10.1,8.8c-16.85,17-26.9,37.76-32.47,60.8,3.18-24.42,11.48-47.21,27.22-66.46A111.77,111.77,0,0,1,70.31,302.2a95.93,95.93,0,0,1,28.74-10.33L209,268c-7.34,4.52-32.27,24.62-37.68,30.08-16.85,17-26.91,37.76-32.47,60.81,3.17-24.41,11.47-47.2,27.19-66.44a100.31,100.31,0,0,0-10.09,8.79C139.09,318.19,129,339,123.47,362c3.17-24.41,11.47-47.19,27.19-66.44a100.42,100.42,0,0,0-10.09,8.8C123.72,321.35,113.66,342.13,108.1,365.18Zm240.76,98.46a145.94,145.94,0,0,0,11.63,14.64,141.21,141.21,0,0,1-25-20.93c-14.12-15-24.51-32.52-32.63-51.35,6.05,20.86,14.88,40.35,27.86,57.87a137.16,137.16,0,0,0,10.95,13,135.86,135.86,0,0,1-24.74-19.31c-14.45-14.31-25.07-31.44-33.32-49.92,6.27,20.61,15.46,39.83,29,56.71a137.9,137.9,0,0,0,10.32,11.46,126.08,126.08,0,0,1-22.54-16.06c-15.73-14.08-27.25-31.42-36-50.48,6.57,20.7,16.3,39.93,30.71,56.34,2.92,3.33,6,6.45,9.14,9.42a116.43,116.43,0,0,1-22.92-15.28c-15.76-13.51-27.34-30.21-36.18-48.86,6.84,20.72,17,40,32.2,55.85,2.55,2.67,5.18,5.18,7.89,7.58a109.5,109.5,0,0,1-22.53-14c-16.08-13-27.82-29.32-36.81-47.78,7.18,21,18,40.36,34.14,55.82,2,1.88,4,3.67,6,5.4a105.68,105.68,0,0,1-21.4-12.34c-16.7-12.45-28.78-28.76-38-47.25,7.26,20.48,18,39.17,34.13,54,2,1.85,4,3.6,6.11,5.28a99.05,99.05,0,0,1-21.17-11.53c-16.83-12.05-29-27.85-38.32-46.16,7.46,20.41,18.46,38.1,34.56,52.82a97.14,97.14,0,0,0,7.75,6.38c-29.69-14.57-52.25-44.15-59.06-80.53-8.77-46.84,11.68-93.6,49.13-114.95,39.62-9.27,76.77-28,107.67-47.7a391,391,0,0,0,2.73,129.51A411.81,411.81,0,0,0,366.2,469.55a140.84,140.84,0,0,1-12.7-12.8C340,441.18,330,423.36,322.12,404.37,327.94,425.51,336.33,445.55,348.86,463.64Zm26.38-38.1A413,413,0,0,1,350,306.22c-3.06-48.72,3.22-99.64,22.56-144.73,18-41.88,49.41-81,95.15-92.92,3.49-.91,7.05-1.48,10.59-2.14-18.82,5.12-35.87,13.43-50.61,26.37C410.44,108,397.23,127.35,387.39,148c-20.64,43.21-27.8,92-26.91,139.58a416.28,416.28,0,0,0,19,116c14.29,45.67,36.68,90.21,69.28,125.6C479,562,519.2,587.49,565.15,585.67c3.41-.13,6.8-.59,10.19-.95-20.38,3.83-40.22,3.15-60.1-3.15-22.29-7.06-42.33-19.64-59.87-35C418.66,514.56,392.25,470.87,375.24,425.54ZM699.17,438c-3.2,18.05-7.54,36-14.26,53.05a232.67,232.67,0,0,1-21.7,41.79c15.55-26.06,25.61-53.84,31.42-83.62,6.36-32.61,7.66-66.35,5.47-99.46-4.5-67.91-23.54-136.17-58.4-194.83-17.27-29-39.14-54.16-66.3-74.25a231.41,231.41,0,0,1,62,62.91c18.91,28.12,33,58.62,43.92,90.63a433.45,433.45,0,0,1,21.29,102C705.54,370.1,705.12,404.39,699.17,438Z"/><path class="cls-2" d="M658.22,111c7.42-4.18,14.55-8.87,21.58-13.66,19-12.94,36.87-27.32,54.62-41.89C726.64,53,718.86,50.62,711,48.33,727.83,33.11,744.34,17.3,759,0c-9.5,5.63-18.67,11.85-27.67,18.24-15.83,11.25-31,23.31-46.21,35.38,7.54,2.5,15.08,5,22.66,7.35-1.59,1.42-3.21,2.82-4.79,4.25C687.23,79.5,671.64,94.47,658.22,111Z"/><path class="cls-2" d="M709.93,193c8.55-1.75,17-4.09,25.35-6.56,21.83-6.46,43.06-14.58,64.22-22.92-6.67-4.69-13.33-9.37-20.07-14,20.65-9.33,41.22-19.32,60.46-31.28-10.77,2.43-21.41,5.54-31.94,8.87-18.52,5.85-36.66,12.66-54.83,19.49,6.41,4.69,12.83,9.36,19.31,14-1.95.86-3.92,1.69-5.86,2.57C747.21,171.92,727.77,181.38,709.93,193Z"/><path class="cls-2" d="M819.81,272.65C842.32,270.15,865,267,887,261.54c-11-1-22.07-1.33-33.11-1.41-19.42-.15-38.79.73-58.18,1.63,4.65,6.43,9.31,12.84,14.05,19.19-9.67,1-19.31,2.2-28.93,3.64a359.92,359.92,0,0,0-40.5,7.94c8.67,1,17.42,1.35,26.14,1.58,22.75.59,45.45-.59,68.16-2C829.69,285.6,824.8,279.09,819.81,272.65Z"/><path class="cls-2" d="M841.79,421.88c-3.18-7.51-6.36-15-9.64-22.46,22.45,3,45.19,5.42,67.85,5.45-10.43-3.64-21.1-6.62-31.79-9.38-18.81-4.83-37.82-8.66-56.85-12.47,3,7.36,5.93,14.7,9,22-9.63-1.35-19.28-2.53-29-3.45a359.32,359.32,0,0,0-41.22-2.08c8.18,3,16.57,5.51,25,7.84C797.1,413.41,819.42,417.75,841.79,421.88Z"/><path class="cls-2" d="M873.42,539.63c-9.2-6.11-18.79-11.65-28.47-17-17-9.36-34.48-17.77-52-26.2,1,7.87,2.09,15.72,3.25,23.56Q782.75,514.48,769,509.5a359.24,359.24,0,0,0-39.41-12.24c7.17,5,14.68,9.46,22.25,13.8,19.75,11.32,40.28,21.06,60.93,30.61-1.22-8.06-2.43-16.11-3.76-24.15C830.05,526,851.48,534,873.42,539.63Z"/></g></g></svg>